<?xml version="1.0" encoding="UTF-8"?>
<svg width="102px" height="23px" viewBox="0 0 102 23" version="1.1" xmlns="http://www.w3.org/2000/svg" xmlns:xlink="http://www.w3.org/1999/xlink">
    <!-- Generator: Sketch 53 (72520) - https://sketchapp.com -->
    <title>Group 3</title>
    <desc>Created with Sketch.</desc>
    <defs>
        <polygon id="path-1" points="0.00922809094 0.0376893678 9.41911795 0.0376893678 9.41911795 8.88769173 0.00922809094 8.88769173"></polygon>
        <polygon id="path-3" points="0.099892703 0.0112068238 5.21898275 0.0112068238 5.21898275 8.67615078 0.099892703 8.67615078"></polygon>
        <polygon id="path-5" points="0.0272836521 0.0258298541 4.47679834 0.0258298541 4.47679834 2.93854863 0.0272836521 2.93854863"></polygon>
    </defs>
    <g id="Page-1" stroke="none" stroke-width="1" fill="none" fill-rule="evenodd">
        <g id="Home_opt3@2x" transform="translate(-650.000000, -109.000000)">
            <g id="Group-3" transform="translate(650.000000, 109.000000)">
                <g id="Group-16" transform="translate(0.400000, 0.000000)">
                    <path d="M7.51842132,13.3372313 C8.59747249,15.4240335 11.1548141,16.2368407 13.2309964,15.1525423 C15.2694651,14.0560233 16.0376899,11.506089 14.9468964,9.45692061 C13.8561029,7.40775219 11.319483,6.6354951 9.28101432,7.73201407 C7.27749631,8.80978556 6.49518076,11.2976449 7.51842132,13.3372313 M16.8680799,8.53260067 C18.404115,11.5538604 17.1599805,15.1461543 14.0117924,16.7605202 C10.8634661,18.3747472 7.24544665,17.2836441 5.71576625,14.2623844 C4.18608585,11.2411247 5.43961425,7.67757695 8.5720538,6.06334994 C11.7044934,4.44898406 15.3225128,5.50814695 16.8617253,8.53260067" id="Fill-1" fill="#FFFFFF"></path>
                    <g id="Group-5" transform="translate(12.571202, 13.583448)">
                        <mask id="mask-2" fill="white">
                            <use xlink:href="#path-1"></use>
                        </mask>
                        <g id="Clip-4"></g>
                        <path d="M9.33664534,0.911877172 C8.11931095,5.09770224 4.6111168,8.20325615 0.326547326,8.88774728 L0.00922809094,6.92565046 C3.53772957,6.36197639 6.42703379,3.80412648 7.4292763,0.356813049 C7.46104967,0.25141058 7.48633022,0.146146981 7.51492625,0.0376893678 L9.41911795,0.525818062 C9.38748273,0.651356708 9.35363719,0.776756483 9.31758132,0.902295129" id="Fill-3" fill="#FFFFFF" mask="url(#mask-2)"></path>
                    </g>
                    <g id="Group-8" transform="translate(17.129989, 2.890444)">
                        <mask id="mask-4" fill="white">
                            <use xlink:href="#path-3"></use>
                        </mask>
                        <g id="Clip-7"></g>
                        <path d="M5.21899656,8.67615078 L3.2450416,8.63782261 C3.29670786,5.90957899 2.14540681,3.29812519 0.099892703,1.50433903 L1.40108115,0.0112068238 C3.88050894,2.19160757 5.27453088,5.36201386 5.20946455,8.67295677" id="Fill-6" fill="#FFFFFF" mask="url(#mask-4)"></path>
                    </g>
                    <path d="M8.69585942,2.45183641 C5.62765732,3.30991527 3.22365674,5.70959204 2.3485077,8.78778852 L0.444316001,8.23591841 C1.50748049,4.49406132 4.43173542,1.5786207 8.16261943,0.540843816 L8.69585942,2.45183641 Z" id="Fill-9" fill="#FFFFFF"></path>
                    <path d="M9.51149556,22.4711398 C9.02260014,22.3968443 8.53923053,22.2903309 8.06428777,22.152155 C3.39360281,20.805392 0.130063587,16.5706846 6.9072537e-05,11.6878701 L1.97402403,11.6239898 C2.08191534,15.6434484 4.76856074,19.12909 8.61341444,20.2379684 C9.00491757,20.3521197 9.40360426,20.44058 9.80671158,20.502655 L9.51149556,22.4711398 Z" id="Fill-11" fill="#5AF0BD"></path>
                    <g id="Group-15" transform="translate(11.604186, 0.113040)">
                        <mask id="mask-6" fill="white">
                            <use xlink:href="#path-5"></use>
                        </mask>
                        <g id="Clip-14"></g>
                        <path d="M4.47679834,1.15198372 L3.61352977,2.93854863 C2.49234435,2.39015027 1.27266149,2.07435948 0.0272836521,2.01020145 L0.122465608,0.025746532 C1.63446344,0.103513835 3.11524049,0.4865178 4.47679834,1.15198372" id="Fill-13" fill="#5AF0BD" mask="url(#mask-6)"></path>
                    </g>
                </g>
                <text id="AION-PAY" font-family="Lato-Bold, Lato" font-size="14.56" font-weight="bold" fill="#FFFFFF">
                    <tspan x="34.55932" y="18">AION PAY</tspan>
                </text>
            </g>
        </g>
    </g>
</svg>