<?xml version="1.0" encoding="UTF-8"?>
<svg width="159px" height="159px" viewBox="0 0 159 159" version="1.1" xmlns="http://www.w3.org/2000/svg" xmlns:xlink="http://www.w3.org/1999/xlink">
    <!-- Generator: Sketch 54.1 (76490) - https://sketchapp.com -->
    <title>kokun_logo copy</title>
    <desc>Created with Sketch.</desc>
    <g id="Page-1" stroke="none" stroke-width="1" fill="none" fill-rule="evenodd">
        <g id="kokun_logo-copy" fill-rule="nonzero">
            <circle id="Oval" fill="#113665" cx="127.51" cy="31.79" r="14.29"></circle>
            <circle id="Oval" fill="#369B79" cx="80.31" cy="78.99" r="25.1"></circle>
            <circle id="Oval" fill="#113665" cx="31.41" cy="127.88" r="14.29"></circle>
            <path d="M25.59,98.21 C18.5463506,77.6706303 23.8153198,54.9129314 39.1691256,39.5591256 C54.5229314,24.2053198 77.2806303,18.9363506 97.82,25.98 L114.57,9.23 C84.2373314,-5.86321471 47.6530162,0.113401262 23.7005474,24.0749361 C-0.251921446,48.036471 -6.2146924,84.6230452 8.89,114.95 L25.59,98.21 Z" id="Path" fill="#113665"></path>
            <path d="M150.06,44.73 L133.32,61.47 C140.372191,82.0101982 135.106219,104.773578 119.749898,120.129898 C104.393578,135.486219 81.6301982,140.752191 61.09,133.7 L44.34,150.45 C74.6759422,165.573391 111.283524,159.610698 135.252111,135.642111 C159.220698,111.673524 165.183391,75.0659422 150.06,44.73 L150.06,44.73 Z" id="Path" fill="#113665"></path>
        </g>
    </g>
</svg>