<svg id="Layer_1" data-name="Layer 1" xmlns="http://www.w3.org/2000/svg" viewBox="0 0 762.66 157.67"><defs><style>.cls-1{fill:#fff;}.cls-2{fill:#00e7ff;}</style></defs><title>Kokun_Logo_Final</title><path class="cls-1" d="M121,190,69.08,252.47l53.6,79H99.17L56.3,267.93l-20,21v42.46H16.11V190h20.2V263.6L97.73,190Z" transform="translate(-16.11 -182.91)"/><path class="cls-1" d="M448.15,190,396.2,252.47l53.6,79H426.3l-42.88-63.49-20,21v42.46h-20.2V190h20.2V263.6L424.85,190Z" transform="translate(-16.11 -182.91)"/><path class="cls-1" d="M606,286.28A48,48,0,0,1,599.75,311a42.33,42.33,0,0,1-17.94,16.59q-11.64,5.88-26.89,5.88h-2.68q-15.27,0-26.7-5.78a42.65,42.65,0,0,1-17.83-16.48q-6.39-10.73-6.39-24.94V190h20.2v95.85q0,13.19,9.18,21.23t23.39,8q14.64,0,23.19-8t8.56-21.23V190H606Z" transform="translate(-16.11 -182.91)"/><path class="cls-1" d="M778.77,190v141.4H761.66L692.6,227.94l-.61.21V331.42H673.64V190h17.73L759.8,292.26l.62-.21V190Z" transform="translate(-16.11 -182.91)"/><circle class="cls-1" cx="254.51" cy="30.79" r="14.29"/><circle class="cls-2" cx="207.31" cy="77.99" r="25.1"/><circle class="cls-1" cx="158.41" cy="126.88" r="14.29"/><path class="cls-1" d="M168.7,280.12a56.86,56.86,0,0,1,72.23-72.23l16.75-16.75A78.83,78.83,0,0,0,152,296.86Z" transform="translate(-16.11 -182.91)"/><path class="cls-1" d="M293.17,226.64l-16.74,16.74a56.85,56.85,0,0,1-72.23,72.23l-16.75,16.75A78.83,78.83,0,0,0,293.17,226.64Z" transform="translate(-16.11 -182.91)"/></svg>