<?xml version="1.0" encoding="UTF-8"?>
<svg width="58px" height="72px" viewBox="0 0 58 72" version="1.1" xmlns="http://www.w3.org/2000/svg" xmlns:xlink="http://www.w3.org/1999/xlink">
    <!-- Generator: Sketch 52.6 (67491) - http://www.bohemiancoding.com/sketch -->
    <title>Shape</title>
    <desc>Created with Sketch.</desc>
    <g id="Page-1" stroke="none" stroke-width="1" fill="none" fill-rule="evenodd" opacity="0.271833147">
        <g id="Home_Step2.4@2x-Copy" transform="translate(-894.000000, -224.000000)" fill="#F6F4F7">
            <g id="Group-2" transform="translate(-71.000000, 64.000000)">
                <g id="Rectangle">
                    <g id="Group-6" transform="translate(865.000000, 160.000000)">
                        <g id="noun_Unlock_183345" transform="translate(100.000000, 0.000000)">
                            <path d="M53.9467106,32.3621154 L50.9525689,32.3621154 L50.9525689,21.8023162 C50.9525689,15.8051269 48.4961383,10.3621506 44.5202995,6.40623472 L44.5106505,6.39727936 L44.5016345,6.38790744 C40.5180395,2.4384468 35.0374721,0 28.9986356,0 C22.9597992,0 17.4794469,2.4384468 13.4956384,6.38790664 L13.4870403,6.39727856 L13.4771839,6.40623392 C8.99907128,10.862419 7.64785656,14.9916168 7.24184141,19.70606 C6.69028365,26.0987556 16.4440654,27.0159858 17.1101305,20.6345359 C17.3771023,18.0811226 18.184517,15.7018242 20.5102919,13.3918815 L20.5300049,13.3735542 C22.6815067,11.2356437 25.6754424,9.91061776 28.9986357,9.91061776 C32.3220409,9.91061776 35.3161888,11.2356437 37.4674786,13.3735542 L37.4869795,13.3918815 C39.6386903,15.5283348 40.9729162,18.5018318 40.9729162,21.802317 L40.9729162,32.3621162 L4.05391628,32.3621162 C1.85963443,32.3621162 0.0631883417,34.1457558 0.0631883417,36.3249062 L0.0631883417,68.0370056 C0.0631883417,70.2180237 1.85963451,72 4.05391628,72 L53.9467106,72 C56.140785,72 57.936814,70.2180237 57.936814,68.0370056 L57.936814,36.3249054 C57.936814,34.145755 56.140785,32.3621154 53.9467106,32.3621154 Z M32.2461236,56.787616 C32.2461236,61.2235962 25.7534585,61.2235962 25.7534585,56.787616 L25.7534585,47.5753357 C25.7534585,43.1393524 32.2461236,43.1393524 32.2461236,47.5753357 L32.2461236,56.787616 Z" id="Shape"></path>
                        </g>
                    </g>
                </g>
            </g>
        </g>
    </g>
</svg>