<?xml version="1.0" encoding="UTF-8"?>
<svg width="93px" height="85px" viewBox="0 0 93 85" version="1.1" xmlns="http://www.w3.org/2000/svg" xmlns:xlink="http://www.w3.org/1999/xlink">
    <!-- Generator: Sketch 52.6 (67491) - http://www.bohemiancoding.com/sketch -->
    <title>Group 5</title>
    <desc>Created with Sketch.</desc>
    <defs>
        <filter x="-1.9%" y="-1.9%" width="103.9%" height="103.8%" filterUnits="objectBoundingBox" id="filter-1">
            <feOffset dx="0" dy="2" in="SourceAlpha" result="shadowOffsetOuter1"></feOffset>
            <feGaussianBlur stdDeviation="2" in="shadowOffsetOuter1" result="shadowBlurOuter1"></feGaussianBlur>
            <feColorMatrix values="0 0 0 0 0   0 0 0 0 0   0 0 0 0 0  0 0 0 0.232563406 0" type="matrix" in="shadowBlurOuter1" result="shadowMatrixOuter1"></feColorMatrix>
            <feMerge>
                <feMergeNode in="shadowMatrixOuter1"></feMergeNode>
                <feMergeNode in="SourceGraphic"></feMergeNode>
            </feMerge>
        </filter>
        <linearGradient x1="50%" y1="12.1478224%" x2="50%" y2="100%" id="linearGradient-2">
            <stop stop-color="#FFFFFF" offset="0%"></stop>
            <stop stop-color="#FEFEFE" offset="100%"></stop>
        </linearGradient>
    </defs>
    <g id="Page-1" stroke="none" stroke-width="1" fill="none" fill-rule="evenodd" opacity="0.445359003">
        <g id="Step-1@2x" transform="translate(-900.000000, -144.000000)">
            <g id="Group-2" transform="translate(410.000000, 132.000000)">
                <g id="Rectangle" filter="url(#filter-1)">
                    <g id="Group-5" transform="translate(494.000000, 14.000000)">
                        <path d="M36.1673464,36.3985119 C35.3834006,37.0481675 34.9824669,37.3306709 34.4612018,37.7289291 C33.868762,38.1827702 32.8154789,38.2434523 27.939756,35.1950682 C20.7546958,30.7020417 1.87291867,18.7206377 1.87291867,18.7206377 C1.87291867,18.7206377 -0.299189759,17.2229623 0.0351777108,15.7252868 C0.369033133,14.2276113 1.03776807,12.7299358 4.88068976,12.2307106 C8.72412349,11.7314854 79.4052078,0.249816556 79.4052078,0.249816556 C79.4052078,0.249816556 85.2538223,-0.748633775 84.0843042,1.24826689 L36.1673464,36.3985119 Z" id="Fill-1" fill="#DFEDE8" opacity="0.79296875"></path>
                        <path d="M35.9509548,36.2882132 C35.0963464,36.8420013 34.7061657,37.1398026 34.1700512,37.5176636 C33.5596898,37.9475377 33.1894789,38.9306901 34.6713464,44.4711205 C36.855744,52.6351603 42.7622199,74.1416172 42.7622199,74.1416172 C42.7622199,74.1416172 43.5564066,76.6515113 45.0915271,76.776445 C46.6271596,76.9013788 48.2616175,76.7086238 49.8771295,73.2002795 C51.4931536,69.6919351 83.4157741,5.84975629 83.4157741,5.84975629 C83.4157741,5.84975629 86.1035151,0.581630464 83.8423102,1.10380265 L35.9509548,36.2882132 Z" id="Fill-3" fill="url(#linearGradient-2)"></path>
                    </g>
                </g>
            </g>
        </g>
    </g>
</svg>